<?xml version="1.0" encoding="UTF-8" standalone="no"?>
<svg
   viewBox="0 0 16 16"
   version="1.1"
   id="svg851"
   sodipodi:docname="Icon.svg"
   inkscape:version="1.1 (c68e22c387, 2021-05-23)"
   inkscape:export-filename="N:\Repository\Projekte\OS\Mastersign.AutoForm\artwork\Icon_16x.png"
   inkscape:export-xdpi="96"
   inkscape:export-ydpi="96"
   xmlns:inkscape="http://www.inkscape.org/namespaces/inkscape"
   xmlns:sodipodi="http://sodipodi.sourceforge.net/DTD/sodipodi-0.dtd"
   xmlns="http://www.w3.org/2000/svg"
   xmlns:svg="http://www.w3.org/2000/svg">
  <defs
     id="defs855" />
  <sodipodi:namedview
     id="namedview853"
     pagecolor="#ffffff"
     bordercolor="#666666"
     borderopacity="1.0"
     inkscape:pageshadow="2"
     inkscape:pageopacity="0.0"
     inkscape:pagecheckerboard="0"
     showgrid="true"
     inkscape:zoom="54.5625"
     inkscape:cx="8"
     inkscape:cy="8"
     inkscape:window-width="2560"
     inkscape:window-height="1377"
     inkscape:window-x="2552"
     inkscape:window-y="-8"
     inkscape:window-maximized="1"
     inkscape:current-layer="svg851">
    <inkscape:grid
       type="xygrid"
       id="grid947"
       originx="8"
       originy="8" />
  </sodipodi:namedview>
  <style
     id="style844">.icon-canvas-transparent{opacity:0;fill:#f6f6f6}.icon-vs-out{fill:#f6f6f6}.icon-vs-bg{fill:#424242}.icon-vs-fg{fill:#f0eff1}.icon-vs-action-orange{fill:#c27d1a}</style>
  <path
     class="icon-canvas-transparent"
     d="M16 16H0V0h16v16z"
     id="canvas" />
  <path
     class="icon-vs-out"
     d="M 16,15 H 0 V 1 H 8 V 0 h 4 v 1 h 4 z"
     id="outline"
     sodipodi:nodetypes="ccccccccc" />
  <path
     class="icon-vs-bg"
     d="M1 2v12h14V2H1zm13 11H2V5h12v8zm-7.999-2H3v-1h3.001v1zm0-3H3V7h3.001v1z"
     id="iconBg" />
  <path
     class="icon-vs-fg"
     d="M2 13h12V5H2v8zm5-7h5v2H7V6zm0 4h5v2H7v-2zM3 7h3.001v1H3V7zm0 3h3.001v1H3v-1z"
     id="iconFg" />
  <path
     class="icon-vs-action-orange"
     d="M12 12H7v-2h5v2zm0-6H7v2h5V6z"
     id="colorImportance"
     style="fill:#05a23c;fill-opacity:1" />
  <path
     style="fill:#fcc705;fill-opacity:1;fill-rule:evenodd;stroke:none;stroke-width:1px;stroke-linecap:butt;stroke-linejoin:miter;stroke-opacity:1"
     d="m 9,1 v 6 l 2,-1 v 3 h -1 l 2,2 2,-2 H 13 V 3 L 11,4 V 1 Z"
     id="path949"
     sodipodi:nodetypes="cccccccccccc" />
</svg>
